<?xml version="1.0" standalone="no"?>
<!DOCTYPE svg PUBLIC "-//W3C//DTD SVG 20010904//EN"
 "http://www.w3.org/TR/2001/REC-SVG-20010904/DTD/svg10.dtd">
<svg version="1.0" xmlns="http://www.w3.org/2000/svg"
 width="500.000000pt" height="500.000000pt" viewBox="0 0 500.000000 500.000000"
 preserveAspectRatio="xMidYMid meet">

<g transform="translate(0.000000,500.000000) scale(0.100000,-0.100000)"
 stroke="none">
<path fill="#ffffff" d="M1562 3155 c-126 -28 -208 -92 -245 -191 -27 -73 -39 -225 -27 -330
23 -208 116 -285 363 -300 125 -7 229 12 300 56 27 16 53 30 59 30 7 0 9 -28
4 -87 -18 -229 -53 -251 -386 -239 -102 3 -204 9 -227 12 l-43 7 0 -121 0
-120 28 -6 c15 -3 92 -13 172 -22 173 -19 392 -14 485 11 162 45 248 150 279
343 35 209 27 558 -16 715 -38 144 -109 211 -254 242 -90 19 -403 19 -492 0z
m384 -250 c51 -21 67 -66 62 -177 -3 -81 -5 -91 -28 -108 -33 -26 -86 -33
-214 -28 -100 3 -107 4 -133 31 -27 26 -28 31 -28 132 0 118 11 140 76 155 60
14 227 11 265 -5z"/>
<path fill="#ffffff" d="M2742 3159 c-82 -14 -148 -47 -191 -95 -72 -82 -91 -200 -91 -564 0
-379 20 -490 100 -570 78 -78 218 -106 485 -97 205 7 314 35 367 94 32 35 67
128 79 213 19 128 16 641 -4 747 -33 177 -102 245 -277 273 -78 12 -393 11
-468 -1z m378 -263 c43 -20 52 -69 57 -326 5 -242 -5 -402 -29 -439 -20 -32
-73 -43 -190 -39 -85 2 -110 7 -126 21 -36 33 -45 104 -45 386 0 364 9 398
116 412 66 9 184 1 217 -15z"/>
<path fill="#e30613" d="M3794 3102 c-10 -9 -14 -40 -14 -97 l0 -84 -92 -3 -93 -3 -3 -52 -3
-52 93 -3 93 -3 3 -75 c3 -116 3 -116 62 -117 59 -1 58 -1 62 117 l3 75 80 1
c44 1 86 2 93 3 8 1 12 19 12 56 l0 54 -92 3 -93 3 -3 70 c-3 108 -5 112 -53
117 -27 2 -47 -1 -55 -10z"/>
</g>
</svg>
